<svg width="180" height="43" viewBox="0 0 180 43" fill="none" xmlns="http://www.w3.org/2000/svg">
<circle cx="168" cy="26.999" r="5" fill="#FC606B"/>
<path d="M46.975 26.974L41.475 4.42402C41.2917 3.65402 41.4383 2.95736 41.915 2.33402C42.4283 1.71069 43.07 1.39902 43.84 1.39902H45.215C46.1317 1.39902 46.9383 1.69236 47.635 2.27902C48.3317 2.86569 48.7533 3.59902 48.9 4.47902L52.31 23.894C52.31 23.9307 52.3283 23.949 52.365 23.949C52.4383 23.949 52.475 23.9307 52.475 23.894L55.94 4.47902C56.1233 3.59902 56.5633 2.86569 57.26 2.27902C57.9567 1.69236 58.745 1.39902 59.625 1.39902H62.375C63.2917 1.39902 64.0983 1.69236 64.795 2.27902C65.4917 2.86569 65.9133 3.59902 66.06 4.47902L69.525 23.894C69.525 23.9307 69.5617 23.949 69.635 23.949C69.6717 23.949 69.69 23.9307 69.69 23.894L73.1 4.47902C73.2833 3.59902 73.7233 2.86569 74.42 2.27902C75.1167 1.69236 75.905 1.39902 76.785 1.39902H77.94C78.7467 1.39902 79.3883 1.71069 79.865 2.33402C80.3783 2.95736 80.525 3.65402 80.305 4.42402L74.805 26.974C74.585 27.854 74.1083 28.5874 73.375 29.174C72.6783 29.724 71.8717 29.999 70.955 29.999H68.205C67.325 29.999 66.5367 29.7057 65.84 29.119C65.1433 28.5324 64.7033 27.799 64.52 26.919L60.945 8.05402C60.945 8.01736 60.9267 7.99902 60.89 7.99902C60.8533 7.99902 60.835 8.01736 60.835 8.05402L57.26 26.919C57.1133 27.799 56.6917 28.5324 55.995 29.119C55.2983 29.7057 54.4917 29.999 53.575 29.999H50.825C49.945 29.999 49.1383 29.724 48.405 29.174C47.6717 28.5874 47.195 27.854 46.975 26.974ZM97.3739 16.249C92.1306 16.249 89.5089 17.8624 89.5089 21.089C89.5089 22.2624 89.8389 23.2157 90.4989 23.949C91.1956 24.6824 92.0756 25.049 93.1389 25.049C95.2289 25.049 96.9156 24.4074 98.1989 23.124C99.4822 21.804 100.124 20.0074 100.124 17.734V16.744C100.124 16.414 99.9589 16.249 99.6289 16.249H97.3739ZM91.1589 30.549C88.6656 30.549 86.5939 29.7424 84.9439 28.129C83.3306 26.479 82.5239 24.3524 82.5239 21.749C82.5239 18.559 83.7339 16.084 86.1539 14.324C88.6106 12.564 92.3506 11.684 97.3739 11.684H99.6289C99.9589 11.684 100.124 11.519 100.124 11.189V10.749C100.124 9.06236 99.7206 7.88902 98.9139 7.22902C98.1072 6.53236 96.6772 6.18402 94.6239 6.18402C92.4972 6.18402 89.8939 6.56902 86.8139 7.33902C86.1539 7.52236 85.5489 7.41236 84.9989 7.00902C84.4489 6.56902 84.1739 6.00069 84.1739 5.30402C84.1739 4.46069 84.4306 3.70902 84.9439 3.04902C85.4572 2.35236 86.1172 1.93069 86.9239 1.78402C89.7106 1.16069 92.3322 0.849022 94.7889 0.849022C99.4822 0.849022 102.764 1.69236 104.634 3.37902C106.504 5.06569 107.439 8.01736 107.439 12.234V26.864C107.439 27.7074 107.127 28.4407 106.504 29.064C105.917 29.6874 105.202 29.999 104.359 29.999H103.754C102.874 29.999 102.122 29.7057 101.499 29.119C100.876 28.4957 100.546 27.744 100.509 26.864V26.094C100.509 26.0574 100.491 26.039 100.454 26.039C100.381 26.039 100.344 26.0574 100.344 26.094C98.1072 29.064 95.0456 30.549 91.1589 30.549ZM117.615 27.029L110.3 4.36902C110.043 3.63569 110.135 2.95736 110.575 2.33402C111.051 1.71069 111.675 1.39902 112.445 1.39902H114.095C115.011 1.39902 115.836 1.69236 116.57 2.27902C117.303 2.82902 117.78 3.54402 118 4.42402L123.5 25.709C123.5 25.7457 123.518 25.764 123.555 25.764C123.591 25.764 123.61 25.7457 123.61 25.709L129.11 4.42402C129.33 3.54402 129.806 2.82902 130.54 2.27902C131.273 1.69236 132.098 1.39902 133.015 1.39902H134.445C135.215 1.39902 135.82 1.71069 136.26 2.33402C136.736 2.95736 136.846 3.63569 136.59 4.36902L129.275 27.029C129.018 27.909 128.505 28.624 127.735 29.174C127.001 29.724 126.158 29.999 125.205 29.999H121.685C120.768 29.999 119.925 29.724 119.155 29.174C118.421 28.624 117.908 27.909 117.615 27.029ZM147.427 29.559L138.297 4.31402C138.077 3.58069 138.169 2.92069 138.572 2.33402C138.975 1.71069 139.562 1.39902 140.332 1.39902H141.982C142.899 1.39902 143.742 1.69236 144.512 2.27902C145.282 2.82902 145.777 3.54402 145.997 4.42402L151.112 22.409C151.112 22.4457 151.13 22.464 151.167 22.464C151.204 22.464 151.222 22.4457 151.222 22.409L157.107 4.36902C157.4 3.48902 157.932 2.77402 158.702 2.22402C159.472 1.67402 160.315 1.39902 161.232 1.39902H162.552C163.322 1.39902 163.909 1.71069 164.312 2.33402C164.752 2.95736 164.825 3.61736 164.532 4.31402L151.112 39.184C150.782 40.064 150.232 40.7607 149.462 41.274C148.692 41.824 147.83 42.099 146.877 42.099H145.557C144.824 42.099 144.237 41.7874 143.797 41.164C143.394 40.5774 143.339 39.9357 143.632 39.239L147.427 30.439C147.5 30.2924 147.537 30.1457 147.537 29.999C147.537 29.8524 147.5 29.7057 147.427 29.559Z" fill="#002050"/>
<g clip-path="url(#clip0_1027_2)">
<path d="M32.1189 9.99944C29.2925 10.0377 27.8444 8.98223 26.4443 7.9611C25.1387 7.00869 23.905 6.11031 21.3991 6.14425C18.8932 6.17819 17.6843 7.11089 16.4044 8.09706C15.0325 9.15574 13.614 10.25 10.787 10.2883C7.96011 10.3266 6.513 9.27112 5.1129 8.24998C3.80734 7.29757 2.57362 6.3992 0.0677076 6.43314L0 1.43359C2.82641 1.39532 4.27404 2.45081 5.67414 3.47194C6.9797 4.42435 8.21342 5.32273 10.7193 5.28879C13.2252 5.25485 14.4342 4.32215 15.7135 3.33598C17.0859 2.2773 18.5044 1.18299 21.3314 1.14471C24.1583 1.10642 25.6059 2.16192 27.006 3.18305C28.3116 4.13546 29.5453 5.03384 32.0518 4.99989L32.1195 9.99943L32.1189 9.99944Z" fill="#FC6668"/>
</g>
<g clip-path="url(#clip1_1027_2)">
<path d="M32.24 18.9985C29.4136 19.0367 27.9655 17.9813 26.5654 16.9601C25.2598 16.0077 24.0261 15.1093 21.5202 15.1433C19.0143 15.1772 17.8053 16.1099 16.5255 17.0961C15.1536 18.1548 13.7351 19.2491 10.9081 19.2874C8.0812 19.3256 6.6341 18.2701 5.234 17.249C3.92843 16.2966 2.69472 15.3982 0.188801 15.4322L0.121094 10.4326C2.9475 10.3943 4.39513 11.4498 5.79523 12.471C7.1008 13.4234 8.33451 14.3218 10.8404 14.2878C13.3463 14.2539 14.5553 13.3212 15.8346 12.335C17.207 11.2763 18.6255 10.182 21.4525 10.1437C24.2794 10.1054 25.727 11.1609 27.1271 12.1821C28.4327 13.1345 29.6664 14.0329 32.1728 13.9989L32.2406 18.9985L32.24 18.9985Z" fill="#F53A78"/>
</g>
<g clip-path="url(#clip2_1027_2)">
<path d="M32.3631 27.9975C29.5367 28.0358 28.0885 26.9803 26.6884 25.9591C25.3829 25.0067 24.1491 24.1084 21.6432 24.1423C19.1373 24.1762 17.9284 25.1089 16.6486 26.0951C15.2766 27.1538 13.8581 28.2481 11.0312 28.2864C8.20425 28.3247 6.75714 27.2692 5.35704 26.248C4.05148 25.2956 2.81776 24.3972 0.311848 24.4312L0.244141 19.4316C3.07055 19.3934 4.51818 20.4489 5.91828 21.47C7.22384 22.4224 8.45756 23.3208 10.9635 23.2868C13.4694 23.2529 14.6783 22.3202 15.9576 21.334C17.3301 20.2753 18.7486 19.181 21.5755 19.1428C24.4024 19.1045 25.8501 20.16 27.2502 21.1811C28.5557 22.1335 29.7895 23.0319 32.2959 22.9979L32.3636 27.9975L32.3631 27.9975Z" fill="#D6027E"/>
</g>
<defs>
<clipPath id="clip0_1027_2">
<rect width="32" height="9" fill="white" transform="translate(0 1.43359) rotate(-0.775896)"/>
</clipPath>
<clipPath id="clip1_1027_2">
<rect width="32" height="9" fill="white" transform="translate(0.121094 10.4326) rotate(-0.775896)"/>
</clipPath>
<clipPath id="clip2_1027_2">
<rect width="32" height="9" fill="white" transform="translate(0.244141 19.4316) rotate(-0.775896)"/>
</clipPath>
</defs>
</svg>
